<mxfile>
    <diagram id="WINrH8xl9_BDoHL1TBoS" name="第 1 页">
        <mxGraphModel dx="722" dy="630" grid="0" gridSize="10" guides="1" tooltips="1" connect="1" arrows="1" fold="1" page="1" pageScale="1" pageWidth="800" pageHeight="700" math="0" shadow="0">
            <root>
                <mxCell id="0"/>
                <mxCell id="1" parent="0"/>
                <mxCell id="3" value="" style="image;html=1;image=img/lib/clip_art/computers/Server_Tower_128x128.png;flipH=1;fontSize=16;" parent="1" vertex="1">
                    <mxGeometry x="377" y="248" width="51" height="51" as="geometry"/>
                </mxCell>
                <mxCell id="7" value="" style="dashed=0;outlineConnect=0;html=1;align=center;labelPosition=center;verticalLabelPosition=bottom;verticalAlign=top;shape=mxgraph.weblogos.chrome" parent="1" vertex="1">
                    <mxGeometry x="57" y="240" width="39.68" height="40" as="geometry"/>
                </mxCell>
                <mxCell id="9" value="" style="endArrow=classic;html=1;strokeWidth=2;fillColor=#d5e8d4;strokeColor=#82b366;" parent="1" edge="1">
                    <mxGeometry width="50" height="50" relative="1" as="geometry">
                        <mxPoint x="114" y="241" as="sourcePoint"/>
                        <mxPoint x="369" y="138" as="targetPoint"/>
                    </mxGeometry>
                </mxCell>
                <mxCell id="10" value="http://localhost:8080/*" style="text;html=1;align=center;verticalAlign=middle;resizable=0;points=[];autosize=1;fontFamily=Roboto Mono;fillColor=#d5e8d4;strokeColor=#82b366;rotation=-23.8;" parent="1" vertex="1">
                    <mxGeometry x="132" y="161" width="176" height="18" as="geometry"/>
                </mxCell>
                <mxCell id="14" value="HTML" style="shape=note;whiteSpace=wrap;html=1;backgroundOutline=1;darkOpacity=0.05;fontFamily=Roboto Mono;size=11;fillColor=#fff2cc;strokeColor=#d6b656;" parent="1" vertex="1">
                    <mxGeometry x="538" y="72" width="40" height="50" as="geometry"/>
                </mxCell>
                <mxCell id="15" value="CSS" style="shape=note;whiteSpace=wrap;html=1;backgroundOutline=1;darkOpacity=0.05;fontFamily=Roboto Mono;size=11;fillColor=#d5e8d4;strokeColor=#82b366;" parent="1" vertex="1">
                    <mxGeometry x="596" y="72" width="40" height="50" as="geometry"/>
                </mxCell>
                <mxCell id="16" value="JS" style="shape=note;whiteSpace=wrap;html=1;backgroundOutline=1;darkOpacity=0.05;fontFamily=Roboto Mono;size=11;fillColor=#ffe6cc;strokeColor=#d79b00;" parent="1" vertex="1">
                    <mxGeometry x="538" y="133" width="40" height="50" as="geometry"/>
                </mxCell>
                <mxCell id="17" value="PNG" style="shape=note;whiteSpace=wrap;html=1;backgroundOutline=1;darkOpacity=0.05;fontFamily=Roboto Mono;size=11;fillColor=#e1d5e7;strokeColor=#9673a6;" parent="1" vertex="1">
                    <mxGeometry x="596" y="135" width="40" height="50" as="geometry"/>
                </mxCell>
                <mxCell id="20" value="" style="shape=image;verticalLabelPosition=bottom;labelBackgroundColor=#ffffff;verticalAlign=top;aspect=fixed;imageAspect=0;image=data:image/png,iVBORw0KGgoAAAANSUhEUgAAAIAAAACACAYAAADDPmHLAAAMbElEQVR4Xu1dfYwU5Rn/PbN3t3sH4lcU1LQGtaZColRkZxFbbZvUVtoaP8BWwQo7S5VE/aNajU0EY22rNqnFKOV2lrOn1CAC2ojWNE2tEe52FaVGSD9Qem0IJzQCetzO3Mc8zSwcvTv2duadnV3mPd75x8g+H795nmef3zvv7TwvwceVzNjXEfNsMJ0B8GQimsLsnAWiKT7UwxLpY3A3kbYHzN1g7CXifYPEm97OtmwJy0kQO6mM9S1mXgjQRQDOAHAmgMYgtgLqHABjHwh7AWzUGC935BI7/diisYSmLd07cWL/pAVgWkjgy/0YO14yDGwE0bOFbHxjvTAkM9aFGvOtDLoJwAX18uvXDwGvOEzthVx8XSWdsgWQNOxlAC8k4Hy/DqMgx6AtYDzhddPVYk0Z1koGfgCguVpbtdenDsB5Om82P1fO1zEFkDSKywm0rPbAaueBmebXqgh0w3oHwMzaoa+NZQY/VDCbl4+2PqIA3G8+gY8Rqg2k2lqtRRHohnUIQEttkdfOerkiOFoA4yn5w0I4N28mXg0jpLphvQdgRhi2jqeN0V+MUgGUFnx9k7bJxvmegSRanc/G055yHgKpjPUCM+ZVaycq+sOLoFQAyYx1OzFWRgVgiDgOan3O9I72lt1BbaYy1p3MWBFUP5p69L52UlOq41dUPFwAhr056o96QQNJwN2dZiJQAmen+TSH7HwUH/OCxmNIj5ju68zFH6MjmzwbqjUYXX1+M282XxkEX4B10esM7gTROxpzTxCfQXQYdCEBycN7EjzRnw3ePaAVp5OesR4H4x5/SnJKDWiDZ29tnbBHFL1uFP8E0Nf86I31mOVHNywZ/Yf2NB5EVqCbzyU9Y7ejtI05fi+NYnM6so1C28Uzl3Bjg2O7j32eW7oax0/vyNEnUYlg0ig+R6BbvPAQ6BG3A7wOxje8hGX+nIgWdGbja0TuIWUUr2LQn710gtj2slnt5zOX8FkNjvUBQKd52HqDdMP6K4CLq3UabX1+MG82PyyCUc9YS8F4qrIO7c+bca8gi7gNTTZlFNcw6GYPg9tJN4rdAE0OzXMkDVFb3owvFoGmp62nQFjqofP3vJn4oojdesnqhn0/wD+v5I/B+9wOwPUCdRz9vJE3E18V8a8bltv+r/JqoaJ2RTBUI+ubwlQBlA+zKoBqyi96uqoDjJETRQFjBEZ1gOh9i6tBpDqA6gBqEViuBhQFKApQj4HlakCtAaph3OjpqjWAWgOoNYBaAwh0JkUBAsGSQFRRgKIARQGKAgRalaIAgWBJIKooQFGAogBFAQKtSlGAQLAkEFUUoChAUYCiAIFWpShAIFgSiCoKUBSgKEBRgECrUhQgECwJRBUFKApQFKAoQKBVKQoQCJYEoooCKlCADaBJgiQGh8h4LZ9LXCNiQDesTQAq6rhzCQtmfI6I3XrJJpdYc8nBKx7++ilpFLsI9Pl6ATsefhh4smAm7hLxrRvWYwDuraTDwIcFMxG5KaEu5qRRfMB9/9/jnne7AyI6wayLBEc2WSLc1ZlNPCmCO7W4eBtr1FZZh3ryZvwkEbv1ktXT1osg3ODhb5v7XsBLAK6tF7Dj4YcI13ZmE78X8a0b9sUAu7MTKl4MmAUzkfGSq+fnybQ9j4hf8PZJG0hPW60gROoGvIGLSbCjzSisbvJM5mirfmcnBCkwsTsQk/aNG1hKKaP4CIMeEHMhl7Q9UDx12zOnHhBFraeLz4Poe3703CFRg1pi1dZWEh5G5ce+H5lkxvo2Mf/Wx2iYkjmOabNoVqb3co21zX4cSCnDWJ/PJW4Mgl1PFxeDKOdfl3oYeJ/ABQYf9K83JKkFHNbBl7hjfgQnvW7Om4krjgyKtDYQcJ044OhrMJybC2bL80GR6ob9EsDjbo00RFtHRsWWTgQZj8Mid352MD59xzrqC1oAqXTvHCbtraD6kdQbNkN5+LTwcTculpkeLeTi91ebhKRR/AmBflqtnYjo/6PBiV+2eTV95uL5fwH4fnSIyG14wqDtiGF+flV8h6eoD4GUYW9gsPQ0qWl0UUdr/G9DtzzywIhxUwThJn8oWLphrQKwxEe9RFREuyxvNm0dDu7YI2OkL4LaJP9oEQg/GUShFujlAc02trZO+u9oNGUPjdIN6xoQ3QBmdyvx5Cjcgg8MO5lpPTWgPay2P5bP1KJe3YnRnX7m8frAXUuRnURYUWkbfMxj41xUs2/tPYebtBsYbiHQV2qJNLBtxnomZ33Pweb11az2g/h3zwsEsCh6p4nQdobzYowTK7yGWFcsgOFBmbnk0FlN3DSV4Uxlds4DtKkATw0SuCA6DFgAdhHhI4B2EQ3saoj173pr5Sn7g9gLU+fLi/iMvgZ7HhhfIPCZDPeATe8p46FhIByAg33uQZoA/thpNr/h17bvAvBrUMnJFQFVAHLlK3S0qgBCD6lcBlUByJWv0NGqAgg9pHIZVAUgV75CR6sKIPSQymVQFYBc+QodrSqA0EMql0FVAHLlK3S0qgBCD6lcBlUByJWv0NH6LoDj/ccgMIpM2KkR/gmgyxnUuvqcQ11Bfu4dZhRn3Lb/lCZtwrlazDkXwLmO+wchxgUgNIfpp5ItBu8GsBPAR8wN/2rEQNeWXHOXH//qz8F+olRG5vCp685NKJ3YHb2LQB+AsJY1XptflXC/NGUv9YMQgdzNm8exrkl9PyKCe0z7pQKqx1O0D8xrGbS2kEu4bzyPuNRPwnymptTqG1raCfwdnyqRE2Om+YVcfN1wYOpHoT7SNGtR7+e0mPYcgGj+KsrHPQyJjC4C9bNwj+ClDPsiBv8OwAyBOEdadHgRqBdDPFKVTNu/IOL7Ip1RQXDDJ5uoV8MqBG/aPG466WR7O4BITgERzPsIcSa6vpCNb1Qvh1aIYtLo/T5Bc9v/uLsY2FgwE9er18MrpNbnmBVpi8MhZ84JMSCisdE6TfTn41fcceDU/v7EJ9Jm1wdwAv3shBgRQ9rgzM7WCe/6iMlRkdSSQ5eyExvxHp2IvgyyBOROiCFRILoxn42vF0mKnrHdV+NeFNGRTpax6YQYEwfCvfls4pciCdIz1j1gPC6iI58sv3OiDIpcWTATS0USlDSspwm4Q0RHQtn/uBQw7kfFMvCHgplwX+T0fSUN6zUCvulbQU7BPrcAAk6mkuqOazUsWqoglAOrCmCMFPocF68KQJIIqA4wRqJUB1AdQK0BytWAogBJertPmIoCFAXU5NAon/UXXTG1BlBrALUGUGuA6HaosJCpNYBaA6g1gNoJFOgn6jFQIFgSiCoKUBSgKEBRgECrUhQgECwJRBUFKApQFKAoQKBVKQoQCJYEoooCFAUoClAUINCqFAUIBEsCUUUBigIUBSgKEGhVigIEgiWBqKIARQGKAhQFCLSqE4cC0sU9IJoiEBsJRaktb8YXiwBPGlaWAENERzpZ5m5KGfa7DP6SdOCFAPODebP5YRGVVNr+MRM/KqIjmyyB3nMnhLwKgtCbs9LdKNGCzmx8jQjuVKZ3PrO2VkRHOlnGa6Sn7TYQ3yYdeAHAGsXmdGQbtwiowD0gmmNap4iOdLJMz7jvBTwG4F7pwAsAHtAGz97aOmGPgAp0gycDdreIjoSyj9Phsee8QULwPiHzm3mz+UqfwiPEdKP4l8iemh7khkbpuMMijwyKtDcT+PIQbEbOBAF3d5qJFUGApQzrLgZ+HUQ36jpD42KPjIq1bifGyqiDDoDvoNbnTO9ob3FP1BC+Zt/ae47TpLmjYk8WVo64AhPuKGQTvykVwLSleydO7Ju0jYDzI45bDB7R6nw2nhZTGimtZ+wcmIX2EKrxVw9dBj7safp0xo6nz+wZNi28uJxAy+oBoI4+5ubNxKvV+NMN6xoALwNoqMZOlHQZ/FDBbF7uYhp5YIRhLyNw6QPZr3KnYwS9p2Sm/2piZw3Apwe1ERW94ck/pgDcf0ga8neCMJM/lLhUuncOk9YO4LyoJFMUx+jkly2Aw0VgLwN4oWxrAndlC8YTo8/FEQ3UWPLJxT2XkNbwEIBrw7JZDzsM/jeAtqG2P9znmMfGlRaG/ZMWgGlh1B8R3dn3IHrWPQChHgGdlS5+nQiLCHRLPfwF90HbAW7TON7WkaOyk899HRxZ2iwq7RPQZIAngzGl9N/S/9ft6mNwN5G2B8zdYOwl4n2DxJvezrYIbfOGhdjdLkYs9l03FuzGhI7GxI1LU1h+vO3wfoDcXcuPAf4YoI+ZsaPn03jbjnXUV0n/f+gOa+VhhNV5AAAAAElFTkSuQmCC;fontFamily=Roboto Mono;fontColor=#000000;" parent="1" vertex="1">
                    <mxGeometry x="535" y="248" width="42" height="42" as="geometry"/>
                </mxCell>
                <mxCell id="21" value="静态资源，前端产出" style="text;html=1;align=center;verticalAlign=middle;resizable=0;points=[];autosize=1;fontFamily=Roboto Mono;fontColor=#000000;" parent="1" vertex="1">
                    <mxGeometry x="529" y="37" width="118" height="18" as="geometry"/>
                </mxCell>
                <mxCell id="22" value="接口，后端产出" style="text;html=1;align=center;verticalAlign=middle;resizable=0;points=[];autosize=1;fontFamily=Roboto Mono;fontColor=#000000;" parent="1" vertex="1">
                    <mxGeometry x="513" y="301.5" width="94" height="18" as="geometry"/>
                </mxCell>
                <mxCell id="23" value="" style="endArrow=classic;html=1;strokeWidth=2;fillColor=#ffe6cc;strokeColor=#d79b00;" parent="1" edge="1">
                    <mxGeometry width="50" height="50" relative="1" as="geometry">
                        <mxPoint x="112.5" y="275" as="sourcePoint"/>
                        <mxPoint x="361.5" y="275" as="targetPoint"/>
                    </mxGeometry>
                </mxCell>
                <mxCell id="24" value="http://study.duyiedu.com/api/*" style="text;html=1;align=center;verticalAlign=middle;resizable=0;points=[];autosize=1;fontFamily=Roboto Mono;fillColor=#ffe6cc;strokeColor=#d79b00;" parent="1" vertex="1">
                    <mxGeometry x="124" y="285.5" width="226" height="18" as="geometry"/>
                </mxCell>
                <mxCell id="27" value="开发服务器" style="image;html=1;image=img/lib/clip_art/computers/Server_Tower_128x128.png;flipH=1;fontSize=16;" vertex="1" parent="1">
                    <mxGeometry x="375" y="104" width="51" height="51" as="geometry"/>
                </mxCell>
                <mxCell id="28" value="" style="endArrow=classic;html=1;strokeWidth=2;fillColor=#d5e8d4;strokeColor=#82b366;" edge="1" parent="1">
                    <mxGeometry width="50" height="50" relative="1" as="geometry">
                        <mxPoint x="437" y="126" as="sourcePoint"/>
                        <mxPoint x="518" y="126" as="targetPoint"/>
                    </mxGeometry>
                </mxCell>
                <mxCell id="29" value="" style="endArrow=classic;html=1;strokeWidth=2;fillColor=#ffe6cc;strokeColor=#d79b00;" edge="1" parent="1">
                    <mxGeometry width="50" height="50" relative="1" as="geometry">
                        <mxPoint x="435" y="271.5" as="sourcePoint"/>
                        <mxPoint x="516" y="271.5" as="targetPoint"/>
                    </mxGeometry>
                </mxCell>
            </root>
        </mxGraphModel>
    </diagram>
</mxfile>